<svg width="200" height="200" viewBox="0 0 200 200" fill="none" xmlns="http://www.w3.org/2000/svg">
<rect width="200" height="200" rx="20" fill="white"/>
<path fill-rule="evenodd" clip-rule="evenodd" d="M103.995 55.0935C102.947 55.0315 101.89 55 100.826 55C71.651 55 48 78.651 48 107.826C48 120.913 52.759 132.889 60.6409 142.117L80.2827 119.565L84.1957 135.217L98.8696 137.174L119.413 122.5L112.565 106.848L86.1522 93.1522L84.1957 73.587L101.804 60.8696L103.995 55.0935Z" fill="#6D28D9"/>
<path fill-rule="evenodd" clip-rule="evenodd" d="M134.713 56.1908L115.5 78.4783L110.609 69.6739L91.0434 66.7391L79.3043 91.1957L110.609 104.891L115.5 119.565L95.9347 139.13L78.7041 139.951C85.3929 143.186 92.8977 145 100.826 145C128.921 145 151.696 122.225 151.696 94.1304C151.696 79.0521 145.135 65.5061 134.713 56.1908Z" fill="#6D28D9"/>
<path d="M128.099 63.9516C120.977 57.5403 111.838 55 102.342 55C85.8439 55 70.2951 64.5565 70.2951 82.8226C70.2951 111.371 109.701 102.903 109.701 118.629C109.701 124.677 102.936 127.581 96.8824 127.581C90.7103 127.581 84.5383 124.556 80.7401 119.476L67.5652 134.234C75.5176 141.734 85.0131 145 95.8141 145C113.143 145 128.217 135.927 128.217 116.815C128.217 86.8145 89.5234 96.8548 89.5234 81.25C89.5234 74.8387 96.7637 72.4194 101.986 72.4194C106.497 72.4194 112.431 74.2339 115.399 78.1048L128.099 63.9516Z" fill="white"/>
</svg>
